<svg xmlns="http://www.w3.org/2000/svg" xmlns:xlink="http://www.w3.org/1999/xlink" version="1.1" x="0px" y="0px" viewBox="0 0 100 125" style="enable-background:new 0 0 100 100;" xml:space="preserve"><path d="M69.8,66.8L59.4,56.4c5.1-6.5,4.6-16-1.4-21.9c-3.1-3.1-7.3-4.9-11.8-4.9s-8.6,1.7-11.7,4.9c-3.2,3.1-4.9,7.3-4.9,11.7  s1.7,8.6,4.9,11.8c3.1,3.1,7.3,4.9,11.8,4.9c3.7,0,7.3-1.2,10.2-3.5l10.4,10.4c0.4,0.4,0.9,0.6,1.5,0.6s1.1-0.2,1.5-0.6  C70.6,69,70.6,67.6,69.8,66.8z M37.4,55c-2.3-2.3-3.6-5.5-3.6-8.8c0-3.3,1.3-6.4,3.6-8.8c2.4-2.3,5.5-3.6,8.8-3.6s6.4,1.3,8.8,3.6  c4.8,4.9,4.8,12.7,0,17.6c-2.3,2.3-5.5,3.6-8.8,3.6C42.9,58.7,39.8,57.4,37.4,55z"/><text x="0" y="115" fill="#000000" font-size="5px" font-weight="bold" font-family="'Helvetica Neue', Helvetica, Arial-Unicode, Arial, Sans-serif">Created by Jan Klever</text><text x="0" y="120" fill="#000000" font-size="5px" font-weight="bold" font-family="'Helvetica Neue', Helvetica, Arial-Unicode, Arial, Sans-serif">from the Noun Project</text></svg>